<svg width="48" height="48" viewBox="0 0 48 48" fill="none" xmlns="http://www.w3.org/2000/svg">
<rect width="48" height="48" rx="8" fill="#E6F4FB"/>
<path fill-rule="evenodd" clip-rule="evenodd" d="M16.5 13.75C15.7707 13.75 15.0712 14.0397 14.5555 14.5555C14.0397 15.0712 13.75 15.7707 13.75 16.5C13.75 17.2293 14.0397 17.9288 14.5555 18.4445C15.0712 18.9603 15.7707 19.25 16.5 19.25C17.2293 19.25 17.9288 18.9603 18.4445 18.4445C18.9603 17.9288 19.25 17.2293 19.25 16.5C19.25 15.7707 18.9603 15.0712 18.4445 14.5555C17.9288 14.0397 17.2293 13.75 16.5 13.75ZM15.25 16.5C15.25 16.1685 15.3817 15.8505 15.6161 15.6161C15.8505 15.3817 16.1685 15.25 16.5 15.25C16.8315 15.25 17.1495 15.3817 17.3839 15.6161C17.6183 15.8505 17.75 16.1685 17.75 16.5C17.75 16.8315 17.6183 17.1495 17.3839 17.3839C17.1495 17.6183 16.8315 17.75 16.5 17.75C16.1685 17.75 15.8505 17.6183 15.6161 17.3839C15.3817 17.1495 15.25 16.8315 15.25 16.5ZM13.75 20.5C13.75 20.3011 13.829 20.1103 13.9697 19.9697C14.1103 19.829 14.3011 19.75 14.5 19.75H18.5C18.6989 19.75 18.8897 19.829 19.0303 19.9697C19.171 20.1103 19.25 20.3011 19.25 20.5V33.5C19.25 33.6989 19.171 33.8897 19.0303 34.0303C18.8897 34.171 18.6989 34.25 18.5 34.25H14.5C14.3011 34.25 14.1103 34.171 13.9697 34.0303C13.829 33.8897 13.75 33.6989 13.75 33.5V20.5ZM15.25 21.25V32.75H17.75V21.25H15.25ZM20.75 20.5C20.75 20.3011 20.829 20.1103 20.9697 19.9697C21.1103 19.829 21.3011 19.75 21.5 19.75H25.5C25.6989 19.75 25.8897 19.829 26.0303 19.9697C26.171 20.1103 26.25 20.3011 26.25 20.5V20.934L26.685 20.747C27.4351 20.4266 28.2307 20.2258 29.043 20.152C31.818 19.9 34.25 22.08 34.25 24.88V33.5C34.25 33.6989 34.171 33.8897 34.0303 34.0303C33.8897 34.171 33.6989 34.25 33.5 34.25H29.5C29.3011 34.25 29.1103 34.171 28.9697 34.0303C28.829 33.8897 28.75 33.6989 28.75 33.5V26.5C28.75 26.1685 28.6183 25.8505 28.3839 25.6161C28.1495 25.3817 27.8315 25.25 27.5 25.25C27.1685 25.25 26.8505 25.3817 26.6161 25.6161C26.3817 25.8505 26.25 26.1685 26.25 26.5V33.5C26.25 33.6989 26.171 33.8897 26.0303 34.0303C25.8897 34.171 25.6989 34.25 25.5 34.25H21.5C21.3011 34.25 21.1103 34.171 20.9697 34.0303C20.829 33.8897 20.75 33.6989 20.75 33.5V20.5ZM22.25 21.25V32.75H24.75V26.5C24.75 25.7707 25.0397 25.0712 25.5555 24.5555C26.0712 24.0397 26.7707 23.75 27.5 23.75C28.2293 23.75 28.9288 24.0397 29.4445 24.5555C29.9603 25.0712 30.25 25.7707 30.25 26.5V32.75H32.75V24.88C32.75 22.976 31.089 21.472 29.18 21.646C28.5241 21.7055 27.8817 21.8675 27.276 22.126L25.796 22.761C25.6818 22.81 25.5573 22.8299 25.4336 22.8189C25.3098 22.8079 25.1907 22.7663 25.087 22.6979C24.9833 22.6295 24.8982 22.5364 24.8394 22.427C24.7806 22.3176 24.7499 22.1952 24.75 22.071V21.25H22.25Z" fill="#001E2C"/>
</svg>
