<svg width="48" height="48" viewBox="0 0 48 48" fill="none" xmlns="http://www.w3.org/2000/svg">
<rect width="48" height="48" rx="8" fill="#E6F4FB"/>
<path d="M24 15.165C24.855 15.165 25.732 15.187 26.582 15.223L27.586 15.271L28.547 15.328L29.447 15.389L30.269 15.453C31.1612 15.5209 32.0008 15.9015 32.64 16.5276C33.2791 17.1538 33.6768 17.9854 33.763 18.876L33.803 19.301L33.878 20.211C33.948 21.154 34 22.182 34 23.165C34 24.148 33.948 25.176 33.878 26.119L33.803 27.029L33.763 27.454C33.6768 28.3448 33.2789 29.1766 32.6396 29.8027C32.0002 30.4289 31.1604 30.8094 30.268 30.877L29.448 30.94L28.548 31.002L27.586 31.059L26.582 31.107C25.7218 31.1443 24.861 31.1636 24 31.165C23.139 31.1636 22.2782 31.1443 21.418 31.107L20.414 31.059L19.453 31.002L18.553 30.94L17.731 30.877C16.8388 30.8091 15.9992 30.4286 15.36 29.8024C14.7209 29.1763 14.3232 28.3446 14.237 27.454L14.197 27.029L14.122 26.119C14.0458 25.1362 14.0051 24.1509 14 23.165C14 22.182 14.052 21.154 14.122 20.211L14.197 19.301L14.237 18.876C14.3232 17.9856 14.7207 17.1541 15.3597 16.5279C15.9986 15.9018 16.838 15.5212 17.73 15.453L18.551 15.389L19.451 15.328L20.413 15.271L21.417 15.223C22.2775 15.1858 23.1387 15.1664 24 15.165ZM24 17.165C23.175 17.165 22.326 17.187 21.5 17.221L20.522 17.268L19.583 17.323L18.701 17.383L17.893 17.446C17.4682 17.4758 17.0677 17.6552 16.7627 17.9523C16.4576 18.2495 16.2678 18.6452 16.227 19.069C16.11 20.278 16 21.783 16 23.165C16 24.547 16.11 26.052 16.227 27.261C16.312 28.133 17.004 28.811 17.893 28.884L18.701 28.946L19.583 29.006L20.522 29.062L21.5 29.109C22.326 29.143 23.175 29.165 24 29.165C24.825 29.165 25.674 29.143 26.5 29.109L27.478 29.062L28.417 29.007L29.299 28.947L30.107 28.884C30.5318 28.8543 30.9323 28.6749 31.2373 28.3778C31.5424 28.0806 31.7322 27.6849 31.773 27.261C31.89 26.052 32 24.547 32 23.165C32 21.783 31.89 20.278 31.773 19.069C31.7322 18.6452 31.5424 18.2495 31.2373 17.9523C30.9323 17.6552 30.5318 17.4758 30.107 17.446L29.299 17.384L28.417 17.324L27.478 17.268L26.5 17.221C25.6671 17.1853 24.8336 17.1666 24 17.165ZM22 20.74C21.9999 20.6423 22.0237 20.546 22.0694 20.4596C22.115 20.3732 22.181 20.2992 22.2618 20.2441C22.3425 20.189 22.4354 20.1544 22.5326 20.1434C22.6297 20.1325 22.728 20.1454 22.819 20.181L22.9 20.221L27.1 22.645C27.1836 22.6933 27.2544 22.761 27.3063 22.8425C27.3581 22.9239 27.3896 23.0167 27.3979 23.1129C27.4062 23.2091 27.3912 23.3059 27.3542 23.395C27.3171 23.4842 27.2591 23.5631 27.185 23.625L27.1 23.685L22.9 26.11C22.8154 26.159 22.72 26.1866 22.6223 26.1904C22.5246 26.1941 22.4274 26.1739 22.3393 26.1315C22.2511 26.0891 22.1747 26.0258 22.1166 25.9471C22.0585 25.8685 22.0205 25.7768 22.006 25.68L22 25.59V20.74Z" fill="#001E2C"/>
</svg>
